{"title":"The Good Doctor Season 1 S01 720p AMZN WEB-DL DD+5.1 H.264-QOQ [","magnet":"magnet:?xt=urn:btih:a2e7b03534ea2ad722da0bb737216f5d20324017&dn=The+Good+Doctor+Season+1+S01+720p+AMZN+WEB-DL+DD%2B5.1+H.264-QOQ+%5B&tr=udp%3A%2F%2Ftracker.leechers-paradise.org%3A6969&tr=udp%3A%2F%2Fzer0day.ch%3A1337&tr=udp%3A%2F%2Fopen.demonii.com%3A1337&tr=udp%3A%2F%2Ftracker.coppersurfer.tk%3A6969&tr=udp%3A%2F%2Fexodus.desync.com%3A6969","uploader":"__rick_","categoryP":"video","categoryS":"hd___movies","size":"15910781590","seeders":"2","leechers":"18","description":"Shaun Murphy, a young surgeon with autism and Savant syndrome, is recruited into the surgical unit of a prestigious hospital.\r\n\r\nThe.Good.Doctor.S01E04.Pipes.720p.Amazon.WEB-DL.DD+5.1.H.264-QOQ.mkv\r\nFile size                                : 903 MiB\r\nDuration                                 : 43 min 0 s\r\n\r\nVideo\r\nID                                       : 1\r\nFormat                                   : AVC\r\nDuration                                 : 43 min 0 s\r\nBit rate                                 : 2 293 kb/s\r\nMaximum bit rate                         : 4 500 kb/s\r\nWidth                                    : 1 280 pixels\r\nHeight                                   : 720 pixels\r\nDisplay aspect ratio                     : 16:9\r\nStream size                              : 705 MiB (78%)\r\n\r\nAudio\r\nFormat                                   : EAC3\r\nDuration                                 : 43 min 0 s\r\nBit rate                                 : 640 kb/s\r\nChannel(s)                               : 6 channels\r\nStream size                              : 197 MiB (22%)\r\nLanguage                                 : English\r\n\r\nScreenshots:\r\n\r\n <a href=\"\nhttp://extraimg.com/image/Bo4\" rel=\"nofollow\" target=\"_NEW\">\nhttp://extraimg.com/image/Bo4</a> <a href=\"\nhttp://extraimg.com/image/BoI\" rel=\"nofollow\" target=\"_NEW\">\nhttp://extraimg.com/image/BoI</a> <a href=\"\nhttp://extraimg.com/image/BoO\" rel=\"nofollow\" target=\"_NEW\">\nhttp://extraimg.com/image/BoO</a>","last_updated":"2018-04-06T14:34:19.645Z","parsed":{"xt":"urn:btih:a2e7b03534ea2ad722da0bb737216f5d20324017","dn":"The Good Doctor Season 1 S01 720p AMZN WEB-DL DD 5.1 H.264-QOQ [","tr":["udp://exodus.desync.com:6969","udp://open.demonii.com:1337","udp://tracker.coppersurfer.tk:6969","udp://tracker.leechers-paradise.org:6969","udp://zer0day.ch:1337"],"infoHash":"a2e7b03534ea2ad722da0bb737216f5d20324017","infoHashBuffer":{"type":"Buffer","data":[162,231,176,53,52,234,42,215,34,218,11,183,55,33,111,93,32,50,64,23]},"name":"The Good Doctor Season 1 S01 720p AMZN WEB-DL DD 5.1 H.264-QOQ [","announce":["udp://exodus.desync.com:6969","udp://open.demonii.com:1337","udp://tracker.coppersurfer.tk:6969","udp://tracker.leechers-paradise.org:6969","udp://zer0day.ch:1337"],"urlList":[]}}